# AST/ASF file generated using VICON BodyLanguage
# -----------------------------------------------
:version 1.10
:name VICON
:units
  mass 1.0
  length 0.45
  angle deg
:documentation
   .ast/.asf automatically generated from VICON data using
   VICON BodyBuilder and BodyLanguage model FoxedUp or BRILLIANT.MOD
:root
   order TX TY TZ RX RY RZ
   axis XYZ
   position 0 0 0  
   orientation 0 0 0 
:bonedata
  begin
     id 1 
     name lhipjoint
     direction 0.61522 -0.761478 0.204097 
     length 2.55743 
     axis 0 0 0  XYZ
  end
  begin
     id 2 
     name lfemur
     direction 0.34202 -0.939693 0  
     length 7.61162  
     axis 0 0 20  XYZ
    dof rx ry rz
    limits (-160.0 20.0)
           (-70.0 70.0)
           (-60.0 70.0)
  end
  begin
     id 3 
     name ltibia
     direction 0.34202 -0.939693 0   
     length 8.12393   
     axis 0 0 20   XYZ
    dof rx
    limits (-10.0 170.0)
  end
  begin
     id 4 
     name lfoot
     direction 0.0841971 -0.23133 0.969225   
     length 2.3572   
     axis -90 7.62852e-016 20   XYZ
    dof rx rz
    limits (-45.0 90.0)
           (-70.0 20.0)
  end
  begin
     id 5 
     name ltoes
     direction 1.53562e-011 -4.22209e-011 1   
     length 1.17993   
     axis -90 7.62852e-016 20   XYZ
    dof rx
    limits (-90.0 20.0)
  end
  begin
     id 6 
     name rhipjoint
     direction -0.625247 -0.75382 0.202044   
     length 2.58341  
     axis 0 0 0  XYZ 
  end
  begin
     id 7 
     name rfemur
     direction -0.34202 -0.939693 0   
     length 7.42147   
     axis 0 0 -20   XYZ
    dof rx ry rz
    limits (-160.0 20.0)
           (-70.0 70.0)
           (-70.0 60.0)
  end
  begin
     id 8 
     name rtibia
     direction -0.34202 -0.939693 0   
     length 8.20893   
     axis 0 0 -20   XYZ
    dof rx
    limits (-10.0 170.0)
 end
 begin
     id 9 
     name rfoot
     direction -0.124331 -0.341598 0.931586   
     length 2.45604  
     axis -90 -7.62852e-016 -20   XYZ
    dof rx rz
    limits (-45.0 90.0)
           (-20.0 70.0)
  end
  begin
     id 10 
     name rtoes
     direction -1.5353e-011 -4.2199e-011 1   
     length 1.21323   
     axis -90 -7.62852e-016 -20   XYZ
    dof rx
    limits (-90.0 20.0)
  end
  begin
     id 11 
     name lowerback
     direction -0.0218484 0.994884 -0.0986303   
     length 2.00523   
     axis 0 0 0   XYZ
    dof rx ry rz
    limits (-20.0 45.0)
           (-30.0 30.0)
           (-30.0 30.0)
  end
  begin
     id 12 
     name upperback
     direction -0.0097305 0.999717 -0.0217111   
     length 2.01352   
     axis 0 0 0   XYZ
    dof rx ry rz
    limits (-20.0 45.0)
           (-30.0 30.0)
           (-30.0 30.0)
  end
  begin
     id 13 
     name thorax
     direction -0.000928262 0.999699 0.0245198   
     length 2.02938   
     axis 0 0 0   XYZ
    dof rx ry rz
    limits (-20.0 45.0)
           (-30.0 30.0)
           (-30.0 30.0)
  end
  begin
     id 14 
     name lowerneck
     direction -0.0307979 0.998024 0.0547665   
     length 1.77263   
     axis 0 0 0   XYZ
    dof rx ry rz
    limits (-20.0 45.0)
           (-30.0 30.0)
           (-30.0 30.0)
  end
  begin
     id 15 
     name upperneck
     direction 0.0531587 0.996611 -0.0627734   
     length 1.77971   
     axis 0 0 0   XYZ
    dof rx ry rz
    limits (-20.0 45.0)
           (-30.0 30.0)
           (-30.0 30.0)
  end
  begin
     id 16
     name head
     direction 0.0213833 0.999404 -0.0271147  
     length 1.78263  
     axis 0 0 0   XYZ
    dof rx ry rz
    limits (-20.0 45.0)
           (-30.0 30.0)
           (-30.0 30.0)
  end
  begin
     id 17 
     name lclavicle
     direction 0.940017 0.332249 -0.0773233  
     length 3.73315  
     axis 0 0 0   XYZ
    dof ry rz
    limits (-20.0 10.0)
           (0.0 20.0)
  end
  begin
     id 18 
     name lhumerus
     direction 1 -4.48944e-011 7.52288e-028   
     length 5.40188   
     axis 180 -30 -90   XYZ
    dof rx ry rz
    limits (-60.0 90.0)
           (-90.0 90.0)
           (-90.0 90.0)
  end
  begin
     id 19
     name lradius
     direction 1 -4.48988e-011 1.48381e-027   
     length 3.68559   
     axis 180 -30 -90   XYZ
    dof rx
    limits (-10.0 170.0)
  end
  begin
     id 20
     name lwrist
     direction 1 -4.48925e-011 2.56952e-028   
     length 1.84279   
     axis -5.12785e-016 90 90   XYZ
    dof ry
    limits (-180.0 0.0)
 end
  begin
     id 21 
     name lhand
     direction 1 -4.49009e-011 5.13905e-028   
     length 0.61753   
     axis -3.27915e-016 90 90   XYZ
    dof rx rz
    limits (-90.0 90.0)
           (-45.0 45.0)
  end
  begin
     id 22 
     name lfingers
     direction 1 -4.49012e-011 1.02781e-027   
     length 0.497868   
     axis -6.5583e-016 90 90   XYZ
    dof rx
    limits (0.0 90.0)
  end
  begin
     id 23
     name lthumb
     direction 0.707107 -6.34987e-011 0.707107   
     length 0.714842   
     axis -90 45 2.85299e-015   XYZ
    dof rx rz
    limits (-45.0 45.0)
           (-45.0 45.0)
  end
  begin
     id 24 
     name rclavicle
     direction -0.9009 0.425937 -0.0834057   
     length 3.27864  
     axis 0 0 0   XYZ 
    dof ry rz
    limits (-10.0 20.0)
           (-20.0 0.0)
  end
  begin
     id 25 
     name rhumerus
     direction -1 -4.48953e-011 -1.03572e-027  
     length 6.1067   
     axis 180 30 90   XYZ
    dof rx ry rz
    limits (-90.0 60.0)
           (-90.0 90.0)
           (-90.0 90.0)
  end
  begin
     id 26 
     name rradius
     direction -1 -4.48975e-011 1.20742e-027   
     length 3.63052   
     axis 180 30 90   XYZ
    dof rx
    limits (-10.0 170.0)
  end
  begin
     id 27 
     name rwrist
     direction -1 -4.49017e-011 2.56952e-028   
     length 1.81526   
     axis -5.12785e-016 -90 -90   XYZ
    dof ry
    limits (-180.0 0.0)
  end
  begin
     id 28
     name rhand
     direction -1 -4.48832e-011 5.13905e-028   
     length 0.583848   
     axis -3.27915e-016 -90 -90   XYZ
    dof rx rz
    limits (-90.0 90.0)
           (-45.0 45.0)
  end
  begin
     id 29
     name rfingers
     direction -1 -4.48729e-011 1.02781e-027   
     length 0.470713   
     axis -6.5583e-016 -90 -90   XYZ
    dof rx
    limits (0.0 90.0)
  end
  begin
     id 30
     name rthumb
     direction -0.707107 -6.34964e-011 0.707107   
     length 0.675852   
     axis -90 -45 -2.85299e-015   XYZ
    dof rx rz
    limits (-45.0 45.0)
           (-45.0 45.0)
  end
:hierarchy
  begin
    root lhipjoint rhipjoint lowerback
    lhipjoint lfemur
    lfemur ltibia
    ltibia lfoot
    lfoot ltoes
    rhipjoint rfemur
    rfemur rtibia
    rtibia rfoot
    rfoot rtoes
    lowerback upperback
    upperback thorax
    thorax lowerneck lclavicle rclavicle
    lowerneck upperneck
    upperneck head
    lclavicle lhumerus
    lhumerus lradius
    lradius lwrist
    lwrist lhand lthumb
    lhand lfingers
    rclavicle rhumerus
    rhumerus rradius
    rradius rwrist
    rwrist rhand rthumb
    rhand rfingers
  end

#!OML:ASF F:\VICON\USERDATA\INSTALL\rory3\rory3.ASF
:FULLY-SPECIFIED
:DEGREES
386
root 0.285667 18.1634 -4.63878 -3.62899 -3.32289 1.39117
lowerback 6.6252 1.38413 0.522244
upperback 0.0892811 1.84931 -0.93091
thorax -3.57451 0.902216 -1.43124
lowerneck -13.5412 -0.946908 -7.84819
upperneck 10.0416 -0.757978 7.57553
head 5.29419 -0.137474 3.60682
rclavicle -2.38507e-014 1.63997e-015
rhumerus 5.61675 30.1913 -45.4171
rradius 99.6258
rwrist 13.6661
rhand -33.2653 14.8748
rfingers 7.12502
rthumb -6.47037 -15.0064
lclavicle -2.38507e-014 1.63997e-015
lhumerus -25.1586 6.91355 43.9851
lradius 97.8012
lwrist -0.798075
lhand -32.965 10.577
lfingers 7.12502
lthumb -6.18043 40.4668
rfemur -5.53861 23.756 9.48529
rtibia 29.6525
rfoot -18.9634 -24.2843
rtoes -14.9113
lfemur -3.07995 -8.82325 -8.56646
ltibia 23.9092
lfoot -15.0128 10.7146
ltoes -16.0305
387
root 0.297802 18.164 -4.6337 -3.75873 -3.95616 1.6332
lowerback 6.6721 1.33361 0.420693
upperback 0.140023 1.77451 -0.924642
thorax -3.55362 0.867108 -1.36112
lowerneck -13.5288 -0.921354 -7.75208
upperneck 10.1391 -0.739577 7.51835
head 5.32037 -0.129225 3.57535
rclavicle 6.10913e-015 4.5472e-015
rhumerus 5.31996 30.2358 -45.6507
rradius 99.9138
rwrist 13.9178
rhand -33.1751 14.3389
rfingers 7.12502
rthumb -6.38325 -15.5449
lclavicle 6.10913e-015 4.5472e-015
lhumerus -25.0356 6.50205 44.4287
lradius 98.1269
lwrist -1.59611
lhand -33.2648 10.5972
lfingers 7.12502
lthumb -6.46988 40.4784
rfemur -5.61414 24.1346 9.15531
rtibia 29.6583
rfoot -18.9735 -23.934
rtoes -14.9161
lfemur -2.62345 -8.76613 -8.96854
ltibia 23.7553
lfoot -15.1719 11.2085
ltoes -15.6244
388
root 0.30801 18.166 -4.62619 -3.87293 -4.66446 1.912
lowerback 6.58321 1.30328 0.307859
upperback 0.252117 1.7249 -0.956574
thorax -3.39141 0.845475 -1.32151
lowerneck -13.57 -0.88172 -7.57012
upperneck 10.2239 -0.706731 7.40277
head 5.35003 -0.113667 3.51237
rclavicle 1.29538e-014 9.43295e-015
rhumerus 5.16064 30.3353 -45.89
rradius 100.197
rwrist 14.125
rhand -33.4342 14.0322
rfingers 7.12502
rthumb -6.63335 -15.8439
lclavicle 1.29538e-014 9.43295e-015
lhumerus -24.6395 6.22779 44.8668
lradius 98.1728
lwrist -2.29986
lhand -32.9511 10.4688
lfingers 7.12502
lthumb -6.16699 40.359
rfemur -5.745 24.5718 8.77821
rtibia 29.6566
rfoot -18.8301 -23.7051
rtoes -15.0798
lfemur -2.16342 -8.64421 -9.40896
ltibia 23.6075
lfoot -15.3299 11.7282
ltoes -15.3068
389
root 0.317234 18.1676 -4.62405 -3.92153 -5.42159 2.03419
lowerback 6.53292 1.27701 0.26442
upperback 0.341145 1.69015 -0.867693
thorax -3.27595 0.830391 -1.19925
lowerneck -13.6186 -0.848953 -7.50496
upperneck 10.2632 -0.649896 7.2246
head 5.36512 -0.0953647 3.45006
rclavicle -8.49455e-015 -7.50412e-015
rhumerus 5.15988 30.4623 -45.9951
rradius 100.412
rwrist 14.3489
rhand -33.1299 13.9018
rfingers 7.12502
rthumb -6.33959 -15.9834
lclavicle -8.49455e-015 -7.50412e-015
lhumerus -24.3633 6.14539 45.3507
lradius 98.282
lwrist -2.87592
lhand -32.1851 10.2069
lfingers 7.12502
lthumb -5.42745 40.1174
rfemur -5.98803 25.0335 8.54381
rtibia 29.656
rfoot -18.672 -23.4222
rtoes -15.1495
lfemur -1.78879 -8.39266 -9.62332
ltibia 23.449
lfoot -15.4923 12.114
ltoes -14.7726
390
root 0.324432 18.1686 -4.62799 -3.88297 -6.13465 1.91373
lowerback 6.51007 1.27377 0.423649
upperback 0.386245 1.70282 -0.71623
thorax -3.21623 0.835825 -1.13211
lowerneck -13.6509 -0.83612 -7.45258
upperneck 10.3085 -0.625807 7.09936
head 5.38222 -0.0901067 3.40408
rclavicle 1.97657e-014 -6.95746e-015
rhumerus 5.04951 30.5492 -46.1544
rradius 100.427
rwrist 15.4098
rhand -34.5437 14.0037
rfingers 7.12502
rthumb -7.70435 -15.836
lclavicle 1.97657e-014 -6.95746e-015
lhumerus -24.1211 5.83542 45.861
lradius 98.4565
lwrist -3.27514
lhand -32.0312 10.3363
lfingers 7.12502
lthumb -5.27881 40.2505
rfemur -6.30221 25.4489 8.56834
rtibia 29.6495
rfoot -18.4613 -23.1417
rtoes -15.3586
lfemur -1.55025 -8.02578 -9.50787
ltibia 23.2884
lfoot -15.5754 12.3615
ltoes -14.4827
391
root 0.334417 18.17 -4.62322 -3.87198 -6.76981 1.96453
lowerback 6.35728 1.28159 0.485205
upperback 0.441739 1.71945 -0.659983
thorax -3.0729 0.844668 -1.10504
lowerneck -13.5415 -0.799723 -7.36968
upperneck 10.2817 -0.596255 7.07853
head 5.35305 -0.0756508 3.3853
rclavicle -1.13308e-014 8.24956e-015
rhumerus 4.78732 30.5715 -46.4208
rradius 100.605
rwrist 16.0132
rhand -35.0458 14.1339
rfingers 7.12502
rthumb -8.18898 -15.6874
lclavicle -1.13308e-014 8.24956e-015
lhumerus -23.9233 5.30393 46.3507
lradius 98.6507
lwrist -3.45167
lhand -32.6711 11.0379
lfingers 7.12502
lthumb -5.89668 40.9358
rfemur -6.54695 25.6971 8.38455
rtibia 29.6281
rfoot -18.3011 -22.8457
rtoes -15.501
lfemur -1.28483 -7.73773 -9.62464
ltibia 23.1777
lfoot -15.7639 12.6375
ltoes -14.2163
